<svg width="12" height="16" viewBox="0 0 12 16" fill="none" xmlns="http://www.w3.org/2000/svg">
<path d="M5.99999 15.5C4.91736 14.6024 3.91387 13.6183 2.99999 12.5581C1.62857 10.9659 7.53336e-07 8.59468 7.53336e-07 6.33512C-0.000594015 5.18115 0.351007 4.05294 1.01031 3.09327C1.66961 2.13361 2.60697 1.38563 3.70376 0.944003C4.80056 0.502372 6.00748 0.386939 7.1718 0.612313C8.33611 0.837687 9.40547 1.39374 10.2445 2.21009C10.8032 2.7507 11.246 3.39364 11.5473 4.1017C11.8486 4.80976 12.0025 5.56888 12 6.33512C12 8.59468 10.3714 10.9659 8.99998 12.5581C8.0861 13.6183 7.0826 14.6024 5.99999 15.5ZM5.99999 3.83561C5.318 3.83561 4.66395 4.09895 4.18172 4.5677C3.69948 5.03645 3.42856 5.67221 3.42856 6.33512C3.42856 6.99803 3.69948 7.63379 4.18172 8.10254C4.66395 8.57129 5.318 8.83463 5.99999 8.83463C6.68197 8.83463 7.33602 8.57129 7.81826 8.10254C8.30049 7.63379 8.57141 6.99803 8.57141 6.33512C8.57141 5.67221 8.30049 5.03645 7.81826 4.5677C7.33602 4.09895 6.68197 3.83561 5.99999 3.83561Z" fill="#08A6BB"/>
</svg>
