<svg width="18" height="20" viewBox="0 0 18 20" fill="none" xmlns="http://www.w3.org/2000/svg">
<path d="M16.3333 0.833344H3.5C2.3945 0.833344 0.75 1.56576 0.75 3.58334V16.4167C0.75 18.4343 2.3945 19.1667 3.5 19.1667H17.25V17.3333H3.511C3.0875 17.3223 2.58333 17.1555 2.58333 16.4167C2.58333 15.6778 3.0875 15.511 3.511 15.5H17.25V1.75001C17.25 1.5069 17.1534 1.27374 16.9815 1.10183C16.8096 0.929921 16.5764 0.833344 16.3333 0.833344ZM6.71108 3.58334C7.07649 3.58334 7.42692 3.7285 7.6853 3.98688C7.94368 4.24526 8.08883 4.59569 8.08883 4.96109C8.08883 5.3265 7.94368 5.67693 7.6853 5.93531C7.42692 6.19369 7.07649 6.33884 6.71108 6.33884C6.34568 6.33884 5.99525 6.19369 5.73687 5.93531C5.47849 5.67693 5.33333 5.3265 5.33333 4.96109C5.33333 4.59569 5.47849 4.24526 5.73687 3.98688C5.99525 3.7285 6.34568 3.58334 6.71108 3.58334ZM9 10.9167H4.41667L7.16667 8.16668L8.54167 9.44909L11.2917 6.33334L14.5 10.9167H9Z" fill="#08A6BB"/>
</svg>
