<svg width="23" height="23" viewBox="0 0 23 23" fill="none" xmlns="http://www.w3.org/2000/svg">
<path d="M9.9704 19.0109C11.9765 19.0105 13.9248 18.3389 15.505 17.1032L20.4734 22.0713L22.0716 20.4733L17.1032 15.5051C18.3396 13.9248 19.0116 11.9762 19.0121 9.96967C19.0121 4.98458 14.9558 0.928467 9.9704 0.928467C4.98504 0.928467 0.928711 4.98458 0.928711 9.96967C0.928711 14.9548 4.98504 19.0109 9.9704 19.0109ZM9.9704 3.18877C13.7103 3.18877 16.7517 6.23 16.7517 9.96967C16.7517 13.7093 13.7103 16.7506 9.9704 16.7506C6.23053 16.7506 3.18913 13.7093 3.18913 9.96967C3.18913 6.23 6.23053 3.18877 9.9704 3.18877Z" fill="white"/>
</svg>
